<svg id="visual" viewBox="0 0 960 540" width="960" height="540" xmlns="http://www.w3.org/2000/svg" xmlns:xlink="http://www.w3.org/1999/xlink" version="1.1"><path d="M0 82L12.3 86.5C24.7 91 49.3 100 74 100C98.7 100 123.3 91 148 85.7C172.7 80.3 197.3 78.7 221.8 84C246.3 89.3 270.7 101.7 295.2 93.5C319.7 85.3 344.3 56.7 369 48.7C393.7 40.7 418.3 53.3 443 59.7C467.7 66 492.3 66 517 58.8C541.7 51.7 566.3 37.3 591 31.8C615.7 26.3 640.3 29.7 664.8 41.3C689.3 53 713.7 73 738.2 72.2C762.7 71.3 787.3 49.7 812 45.2C836.7 40.7 861.3 53.3 886 55.2C910.7 57 935.3 48 947.7 43.5L960 39L960 0L947.7 0C935.3 0 910.7 0 886 0C861.3 0 836.7 0 812 0C787.3 0 762.7 0 738.2 0C713.7 0 689.3 0 664.8 0C640.3 0 615.7 0 591 0C566.3 0 541.7 0 517 0C492.3 0 467.7 0 443 0C418.3 0 393.7 0 369 0C344.3 0 319.7 0 295.2 0C270.7 0 246.3 0 221.8 0C197.3 0 172.7 0 148 0C123.3 0 98.7 0 74 0C49.3 0 24.7 0 12.3 0L0 0Z" fill="#014701"></path><path d="M0 120L12.3 124.5C24.7 129 49.3 138 74 139.8C98.7 141.7 123.3 136.3 148 131.8C172.7 127.3 197.3 123.7 221.8 125.3C246.3 127 270.7 134 295.2 124C319.7 114 344.3 87 369 83.5C393.7 80 418.3 100 443 110C467.7 120 492.3 120 517 106.5C541.7 93 566.3 66 591 55.2C615.7 44.3 640.3 49.7 664.8 63.2C689.3 76.7 713.7 98.3 738.2 97.5C762.7 96.7 787.3 73.3 812 71.5C836.7 69.7 861.3 89.3 886 90.2C910.7 91 935.3 73 947.7 64L960 55L960 37L947.7 41.5C935.3 46 910.7 55 886 53.2C861.3 51.3 836.7 38.7 812 43.2C787.3 47.7 762.7 69.3 738.2 70.2C713.7 71 689.3 51 664.8 39.3C640.3 27.7 615.7 24.3 591 29.8C566.3 35.3 541.7 49.7 517 56.8C492.3 64 467.7 64 443 57.7C418.3 51.3 393.7 38.7 369 46.7C344.3 54.7 319.7 83.3 295.2 91.5C270.7 99.7 246.3 87.3 221.8 82C197.3 76.7 172.7 78.3 148 83.7C123.3 89 98.7 98 74 98C49.3 98 24.7 89 12.3 84.5L0 80Z" fill="#0d4f0b"></path><path d="M0 131L12.3 140.8C24.7 150.7 49.3 170.3 74 175.7C98.7 181 123.3 172 148 163C172.7 154 197.3 145 221.8 146.8C246.3 148.7 270.7 161.3 295.2 155C319.7 148.7 344.3 123.3 369 115.2C393.7 107 418.3 116 443 126C467.7 136 492.3 147 517 134.5C541.7 122 566.3 86 591 76C615.7 66 640.3 82 664.8 100C689.3 118 713.7 138 738.2 133.5C762.7 129 787.3 100 812 96.3C836.7 92.7 861.3 114.3 886 116.2C910.7 118 935.3 100 947.7 91L960 82L960 53L947.7 62C935.3 71 910.7 89 886 88.2C861.3 87.3 836.7 67.7 812 69.5C787.3 71.3 762.7 94.7 738.2 95.5C713.7 96.3 689.3 74.7 664.8 61.2C640.3 47.7 615.7 42.3 591 53.2C566.3 64 541.7 91 517 104.5C492.3 118 467.7 118 443 108C418.3 98 393.7 78 369 81.5C344.3 85 319.7 112 295.2 122C270.7 132 246.3 125 221.8 123.3C197.3 121.7 172.7 125.3 148 129.8C123.3 134.3 98.7 139.7 74 137.8C49.3 136 24.7 127 12.3 122.5L0 118Z" fill="#185615"></path><path d="M0 152L12.3 171C24.7 190 49.3 228 74 240.7C98.7 253.3 123.3 240.7 148 222.7C172.7 204.7 197.3 181.3 221.8 174.2C246.3 167 270.7 176 295.2 167.8C319.7 159.7 344.3 134.3 369 131.5C393.7 128.7 418.3 148.3 443 164.5C467.7 180.7 492.3 193.3 517 181.7C541.7 170 566.3 134 591 123.2C615.7 112.3 640.3 126.7 664.8 148.3C689.3 170 713.7 199 738.2 195.5C762.7 192 787.3 156 812 151.5C836.7 147 861.3 174 886 178.5C910.7 183 935.3 165 947.7 156L960 147L960 80L947.7 89C935.3 98 910.7 116 886 114.2C861.3 112.3 836.7 90.7 812 94.3C787.3 98 762.7 127 738.2 131.5C713.7 136 689.3 116 664.8 98C640.3 80 615.7 64 591 74C566.3 84 541.7 120 517 132.5C492.3 145 467.7 134 443 124C418.3 114 393.7 105 369 113.2C344.3 121.3 319.7 146.7 295.2 153C270.7 159.3 246.3 146.7 221.8 144.8C197.3 143 172.7 152 148 161C123.3 170 98.7 179 74 173.7C49.3 168.3 24.7 148.7 12.3 138.8L0 129Z" fill="#215e1f"></path><path d="M0 190L12.3 208C24.7 226 49.3 262 74 271C98.7 280 123.3 262 148 241.3C172.7 220.7 197.3 197.3 221.8 193.7C246.3 190 270.7 206 295.2 202.3C319.7 198.7 344.3 175.3 369 171.8C393.7 168.3 418.3 184.7 443 196.3C467.7 208 492.3 215 517 204.2C541.7 193.3 566.3 164.7 591 161.2C615.7 157.7 640.3 179.3 664.8 204.5C689.3 229.7 713.7 258.3 738.2 250.2C762.7 242 787.3 197 812 191.7C836.7 186.3 861.3 220.7 886 226.2C910.7 231.7 935.3 208.3 947.7 196.7L960 185L960 145L947.7 154C935.3 163 910.7 181 886 176.5C861.3 172 836.7 145 812 149.5C787.3 154 762.7 190 738.2 193.5C713.7 197 689.3 168 664.8 146.3C640.3 124.7 615.7 110.3 591 121.2C566.3 132 541.7 168 517 179.7C492.3 191.3 467.7 178.7 443 162.5C418.3 146.3 393.7 126.7 369 129.5C344.3 132.3 319.7 157.7 295.2 165.8C270.7 174 246.3 165 221.8 172.2C197.3 179.3 172.7 202.7 148 220.7C123.3 238.7 98.7 251.3 74 238.7C49.3 226 24.7 188 12.3 169L0 150Z" fill="#2a6628"></path><path d="M0 271L12.3 282.7C24.7 294.3 49.3 317.7 74 318.5C98.7 319.3 123.3 297.7 148 273.3C172.7 249 197.3 222 221.8 222C246.3 222 270.7 249 295.2 248.2C319.7 247.3 344.3 218.7 369 210.7C393.7 202.7 418.3 215.3 443 232.5C467.7 249.7 492.3 271.3 517 265.8C541.7 260.3 566.3 227.7 591 223.2C615.7 218.7 640.3 242.3 664.8 267.7C689.3 293 713.7 320 738.2 308.2C762.7 296.3 787.3 245.7 812 232.2C836.7 218.7 861.3 242.3 886 249.7C910.7 257 935.3 248 947.7 243.5L960 239L960 183L947.7 194.7C935.3 206.3 910.7 229.7 886 224.2C861.3 218.7 836.7 184.3 812 189.7C787.3 195 762.7 240 738.2 248.2C713.7 256.3 689.3 227.7 664.8 202.5C640.3 177.3 615.7 155.7 591 159.2C566.3 162.7 541.7 191.3 517 202.2C492.3 213 467.7 206 443 194.3C418.3 182.7 393.7 166.3 369 169.8C344.3 173.3 319.7 196.7 295.2 200.3C270.7 204 246.3 188 221.8 191.7C197.3 195.3 172.7 218.7 148 239.3C123.3 260 98.7 278 74 269C49.3 260 24.7 224 12.3 206L0 188Z" fill="#336e31"></path><path d="M0 357L12.3 375C24.7 393 49.3 429 74 439C98.7 449 123.3 433 148 428.5C172.7 424 197.3 431 221.8 414.8C246.3 398.7 270.7 359.3 295.2 326.2C319.7 293 344.3 266 369 266C393.7 266 418.3 293 443 310C467.7 327 492.3 334 517 348.3C541.7 362.7 566.3 384.3 591 381.7C615.7 379 640.3 352 664.8 347.5C689.3 343 713.7 361 738.2 353.8C762.7 346.7 787.3 314.3 812 323.3C836.7 332.3 861.3 382.7 886 399.7C910.7 416.7 935.3 400.3 947.7 392.2L960 384L960 237L947.7 241.5C935.3 246 910.7 255 886 247.7C861.3 240.3 836.7 216.7 812 230.2C787.3 243.7 762.7 294.3 738.2 306.2C713.7 318 689.3 291 664.8 265.7C640.3 240.3 615.7 216.7 591 221.2C566.3 225.7 541.7 258.3 517 263.8C492.3 269.3 467.7 247.7 443 230.5C418.3 213.3 393.7 200.7 369 208.7C344.3 216.7 319.7 245.3 295.2 246.2C270.7 247 246.3 220 221.8 220C197.3 220 172.7 247 148 271.3C123.3 295.7 98.7 317.3 74 316.5C49.3 315.7 24.7 292.3 12.3 280.7L0 269Z" fill="#3b763a"></path><path d="M0 417L12.3 431.3C24.7 445.7 49.3 474.3 74 482.3C98.7 490.3 123.3 477.7 148 471.3C172.7 465 197.3 465 221.8 449.8C246.3 434.7 270.7 404.3 295.2 368.3C319.7 332.3 344.3 290.7 369 287.8C393.7 285 418.3 321 443 339C467.7 357 492.3 357 517 372.3C541.7 387.7 566.3 418.3 591 421.2C615.7 424 640.3 399 664.8 391C689.3 383 713.7 392 738.2 381.2C762.7 370.3 787.3 339.7 812 354C836.7 368.3 861.3 427.7 886 442C910.7 456.3 935.3 425.7 947.7 410.3L960 395L960 382L947.7 390.2C935.3 398.3 910.7 414.7 886 397.7C861.3 380.7 836.7 330.3 812 321.3C787.3 312.3 762.7 344.7 738.2 351.8C713.7 359 689.3 341 664.8 345.5C640.3 350 615.7 377 591 379.7C566.3 382.3 541.7 360.7 517 346.3C492.3 332 467.7 325 443 308C418.3 291 393.7 264 369 264C344.3 264 319.7 291 295.2 324.2C270.7 357.3 246.3 396.7 221.8 412.8C197.3 429 172.7 422 148 426.5C123.3 431 98.7 447 74 437C49.3 427 24.7 391 12.3 373L0 355Z" fill="#447f43"></path><path d="M0 541L12.3 541C24.7 541 49.3 541 74 541C98.7 541 123.3 541 148 541C172.7 541 197.3 541 221.8 541C246.3 541 270.7 541 295.2 541C319.7 541 344.3 541 369 541C393.7 541 418.3 541 443 541C467.7 541 492.3 541 517 541C541.7 541 566.3 541 591 541C615.7 541 640.3 541 664.8 541C689.3 541 713.7 541 738.2 541C762.7 541 787.3 541 812 541C836.7 541 861.3 541 886 541C910.7 541 935.3 541 947.7 541L960 541L960 393L947.7 408.3C935.3 423.7 910.7 454.3 886 440C861.3 425.7 836.7 366.3 812 352C787.3 337.7 762.7 368.3 738.2 379.2C713.7 390 689.3 381 664.8 389C640.3 397 615.7 422 591 419.2C566.3 416.3 541.7 385.7 517 370.3C492.3 355 467.7 355 443 337C418.3 319 393.7 283 369 285.8C344.3 288.7 319.7 330.3 295.2 366.3C270.7 402.3 246.3 432.7 221.8 447.8C197.3 463 172.7 463 148 469.3C123.3 475.7 98.7 488.3 74 480.3C49.3 472.3 24.7 443.7 12.3 429.3L0 415Z" fill="#4c874c"></path></svg>